<svg xmlns="http://www.w3.org/2000/svg" xmlns:xlink="http://www.w3.org/1999/xlink" width="11.660888671875" height="12.29638671875" viewBox="0 0 11.660888671875 12.29638671875" fill="none">
<path d="M2.12012 4.66431L7.20852 4.66431L7.20852 5.08823L2.12012 5.08823L2.12012 4.66431Z"   fill="#1566A3" >
</path>
<path d="M5.79803 11.4486L0.848063 11.4486L0.848063 3.81623L3.81622 3.81623L3.81622 0.848094L8.48048 0.848094L8.48048 7.20852C8.77514 7.20852 9.05969 7.25164 9.32837 7.33158L9.32837 0L2.96814 0L0 2.96816L0 12.2954L6.40308 12.2964C6.1547 12.053 5.94897 11.7663 5.79803 11.4486L5.79803 11.4486Z"   fill="#1566A3" >
</path>
<path d="M2.12012 5.51245L7.20852 5.51245L7.20852 5.93639L2.12012 5.93639L2.12012 5.51245ZM2.12012 6.36051L7.20852 6.36051L7.20852 6.78445L2.12012 6.78445L2.12012 6.36051ZM2.12012 7.20858L5.08829 7.20858L5.08829 7.63251L2.12012 7.63251L2.12012 7.20858ZM8.48054 9.2227C8.1879 9.2227 7.95049 9.46023 7.95049 9.75289C7.95049 10.0454 8.18791 10.283 8.48054 10.283C8.77301 10.283 9.0106 10.0454 9.0106 9.75289C9.0106 9.46023 8.77301 9.2227 8.48054 9.2227Z"   fill="#1566A3" >
</path>
<path d="M8.48053 7.63257C6.72419 7.63257 5.30017 9.7529 5.30017 9.7529C5.30017 9.7529 6.72419 11.8731 8.48053 11.8731C10.2369 11.8731 11.6609 9.7529 11.6609 9.7529C11.6609 9.7529 10.2369 7.63257 8.48053 7.63257ZM8.48053 11.0781C7.74876 11.0781 7.15537 10.4845 7.15537 9.75291C7.15537 9.02088 7.74876 8.42768 8.48053 8.42768C9.21231 8.42768 9.8057 9.02088 9.8057 9.75291C9.8057 10.4845 9.21231 11.0781 8.48053 11.0781Z"   fill="#1566A3" >
</path>
</svg>
